<svg width="60" height="40" viewBox="0 0 60 40" fill="none" xmlns="http://www.w3.org/2000/svg">
<path d="M6.69714 38H53.3014L29.9992 14.646L6.69714 38Z" fill="white"/>
<path d="M31.9162 8.45708L27.7929 10.4285L26.9856 9.62079L28.9537 5.48954L25.9096 8.54009L24.6849 7.31252L29.9849 2L31.7195 3.73679L29.7221 7.68553L33.7148 5.73537L35.3967 7.42426L30.0952 12.7368L28.8705 11.5092L31.9162 8.45708Z" fill="white"/>
<path d="M22.5634 9.4484L23.5482 12.4479L23.521 12.4447L20.6752 11.3384L19.1948 12.8214L24.1126 14.3794L26.1782 16.4498L27.5244 15.1009L25.4476 13.0178L24.1302 7.87604L22.5634 9.4484Z" fill="white"/>
<path fill-rule="evenodd" clip-rule="evenodd" d="M16.5488 15.2398C18.2067 13.5781 20.3986 13.7393 21.9526 15.2957C23.505 16.8521 23.6681 19.0486 22.0102 20.7088C20.3523 22.3705 18.1604 22.2093 16.6079 20.6529C15.0523 19.0965 14.8925 16.9 16.5488 15.2398ZM17.6024 16.295C16.7614 17.1378 17.0428 18.1627 18.0676 19.1891C19.0924 20.2155 20.1141 20.4965 20.955 19.6552C21.796 18.8124 21.5146 17.7875 20.4898 16.7611C19.465 15.7331 18.4433 15.4521 17.6024 16.295Z" fill="white"/>
<path d="M15.3705 22.6419L18.9774 23.6667L17.5337 25.113L12.95 23.8136L13.7398 23.0218C14.1267 22.6355 14.1363 22.0177 13.7638 21.6442C13.3897 21.2691 12.7757 21.2818 12.3904 21.6697L11.5223 22.5381L15.8134 26.8386L14.4688 28.1875L9.1673 22.8733L11.8532 20.1804L11.8548 20.182C12.7469 19.2864 14.0867 19.2593 14.8733 20.0447C15.604 20.7774 15.7894 21.8485 15.3737 22.6403L15.3705 22.6419Z" fill="white"/>
<path d="M7.17359 27.0397L8.0785 27.9464L9.94267 26.0755L11.025 27.1594L9.15767 29.0303L10.312 30.186L12.6174 27.8746L13.6998 28.9569L10.0466 32.6172L4.74506 27.3047L8.39825 23.6428L9.47902 24.7267L7.17359 27.0397Z" fill="white"/>
<path d="M5.69154 36.9832L9.28718 33.3803L8.08011 32.1703L5.82744 34.4275L1.73298 30.3234L0.390015 31.6707L5.69154 36.9832Z" fill="white"/>
<path d="M48.0798 30.7607L53.3813 25.4466L51.9696 24.0307L46.6681 29.3448L48.0798 30.7607Z" fill="white"/>
<path d="M36.9843 11.1804L36.0794 12.0871L38.113 14.1256L37.0306 15.2095L34.9986 13.1694L33.8443 14.3267L36.3192 16.8058L35.2384 17.8897L31.4189 14.0617L36.7189 8.74921L40.5399 12.5772L39.4576 13.6579L36.9843 11.1804Z" fill="white"/>
<path d="M45.696 28.3774L42.102 24.7746L47.4019 19.462L48.7449 20.8077L44.652 24.9102L46.9031 27.1674L45.696 28.3774Z" fill="white"/>
<path d="M56.3822 28.4509L54.6827 34.0842L58.3407 30.4159L59.6005 31.6786L54.3006 36.9879L52.6379 35.323L54.0874 29.5241L50.4684 33.1488L49.2453 31.9228L54.5436 26.6103L56.3822 28.4509Z" fill="white"/>
<path d="M42.1196 20.1532L41.098 23.7689L39.6543 22.3194L40.7846 17.5576L41.7423 18.5186C42.1292 18.9049 42.7447 18.9161 43.1172 18.541C43.4913 18.1674 43.477 17.5529 43.0932 17.165L42.0572 16.1289L37.7661 20.431L36.4216 19.0821L41.7231 13.768L44.5769 16.627V16.6286C45.469 17.5241 45.4978 18.8666 44.7128 19.6552C43.9822 20.3863 42.9126 20.5731 42.1228 20.1564L42.1196 20.1532Z" fill="white"/>
</svg>
